<svg width="37.775" height="61.357" viewBox="0 0 37.775 61.357" xmlns="http://www.w3.org/2000/svg">
 <path d="m27.63 46.588c0 3.5029-0.352 7.4139-1.7596 9.9828-0.99705 1.81-2.3456 3.036-4.3982 3.036-1.6426 0-2.6392-1.1095-2.6392-2.8025 0-3.036 3.1667-6.0715 7.917-11.559 0.2947-0.3408 0.5882-0.6769 0.87955-1.0097 4.5e-4 0.85125 4.5e-4 1.6468 4.5e-4 2.3526zm10.146-16.419c-3.1364 3.8426-5.7718 6.7572-8.504 9.7793v-13.677c0-0.40865-0.29305-0.7004-0.6446-0.8173-0.41055-0.0583-0.76255 0.1169-0.93855 0.4669 0 0.0587-2.8152 6.4224-6.3924 10.625-2.9912 3.5614-5.6892 5.7212-9.6184 5.7212-5.8059 0-9.7355-5.4294-9.853-14.07-0.11706-8.6404 2.9911-16.288 7.9764-21.484 3.0496-3.211 6.7444-4.9625 10.498-4.9625 4.7507 0 7.3898 3.1527 7.3898 8.8739 0 6.305-3.8707 12.96-7.0964 16.814-0.2935 0.3504-0.176 0.93425 0.176 1.226 0.352 0.29215 0.9381 0.2335 1.2316-0.1169 3.4016-4.0279 7.5069-11.267 7.5069-18.04 0-5.9546-3.1082-10.508-9.2664-10.508-4.2227 0-8.3864 1.9263-11.788 5.4873-5.2778 5.5464-8.621 13.661-8.445 22.71 0.23452 11.734 6.4509 15.879 11.612 15.879 5.0438 0 8.445-3.2105 11.026-6.4802 1.9941-2.5102 3.8122-5.5464 4.9263-7.7645 0.0421 2.2193 0.0539 7.412 0.05765 11.938-0.68755 0.7645-1.3869 1.5462-2.1103 2.3652-4.5158 5.1377-8.445 8.8157-8.445 12.785 0 2.6275 1.818 4.437 4.3987 4.437 2.1696 0 4.4568-1.051 6.0989-4.1445 1.173-2.2185 1.7006-5.5465 1.7006-10.625v-4.211c2.8168-3.1632 5.5516-6.1374 8.504-9.6518" stroke-width=".5"/>
</svg>
